<svg xmlns="http://www.w3.org/2000/svg" viewBox="0 0 111.12 85.86"><defs><style>.cls-1{fill:#3c6854;}.cls-2{fill:#65bf65;}.cls-3{fill:#2d5b47;}</style></defs><g id="Vrstva_2" data-name="Vrstva 2"><g id="Vrstva_1-2" data-name="Vrstva 1"><g id="Group_11" data-name="Group 11"><path id="Path_614" data-name="Path 614" class="cls-1" d="M0,1.52V15.21H24.09V76.64H40.52V15.21H64.78V76.64H81.2V15.21h24.2V1.52Z"/><path id="Path_615" data-name="Path 615" class="cls-1" d="M0,1.55V15.24H24.11V76.67H40.54V15.24H64.8V76.67H81.22V15.24h24.2V1.55Z"/><path id="Path_616" data-name="Path 616" class="cls-1" d="M0,1.58V15.27H24.13V76.7H40.56V15.27H64.81V76.7H81.24V15.27h24.2V1.58Z"/><path id="Path_617" data-name="Path 617" class="cls-1" d="M.06,1.61V15.3H24.15V76.73H40.57V15.3H64.83V76.73H81.26V15.3h24.2V1.61Z"/><path id="Path_618" data-name="Path 618" class="cls-1" d="M.08,1.64V15.33H24.17V76.76H40.59V15.33H64.85V76.76H81.28V15.33h24.2V1.64Z"/><path id="Path_619" data-name="Path 619" class="cls-1" d="M.1,1.67V15.36H24.19V76.79H40.61V15.36H64.87V76.79H81.3V15.36h24.2V1.67Z"/><path id="Path_620" data-name="Path 620" class="cls-1" d="M.11,1.71V15.39h24.1V76.82H40.63V15.39H64.89V76.82H81.32V15.39h24.2V1.71Z"/><path id="Path_621" data-name="Path 621" class="cls-1" d="M.13,1.74V15.42H24.22V76.85H40.65V15.42H64.91V76.85H81.34V15.42h24.2V1.74Z"/><path id="Path_622" data-name="Path 622" class="cls-1" d="M.15,1.77V15.45H24.24V76.89H40.67V15.45H64.93V76.89H81.36V15.45h24.2V1.77Z"/><path id="Path_623" data-name="Path 623" class="cls-1" d="M.17,1.8V15.48H24.26V76.92H40.68V15.48H64.94V76.92H81.37V15.48h24.2V1.8Z"/><path id="Path_624" data-name="Path 624" class="cls-1" d="M.19,1.83V15.52H24.28V77H40.71V15.52H65V77H81.39V15.52h24.2V1.83Z"/><path id="Path_625" data-name="Path 625" class="cls-1" d="M.21,1.86V15.55H24.3V77H40.73V15.55H65V77H81.41V15.55h24.2V1.86Z"/><path id="Path_626" data-name="Path 626" class="cls-1" d="M.23,1.89V15.58H24.32V77H40.75V15.58H65V77H81.43V15.58h24.2V1.89Z"/><path id="Path_627" data-name="Path 627" class="cls-1" d="M.25,1.92V15.61H24.34V77H40.77V15.61H65V77H81.45V15.61h24.2V1.92Z"/><path id="Path_628" data-name="Path 628" class="cls-1" d="M.27,2V15.64H24.36V77.07H40.78V15.64H65V77.07H81.47V15.64h24.2V2Z"/><path id="Path_629" data-name="Path 629" class="cls-1" d="M.29,2V15.67H24.38V77.1H40.8V15.67H65.06V77.1H81.49V15.67h24.2V2Z"/><path id="Path_630" data-name="Path 630" class="cls-1" d="M.3,2V15.7H24.4V77.13H40.82V15.7H65.08V77.13H81.51V15.7h24.2V2Z"/><path id="Path_631" data-name="Path 631" class="cls-1" d="M.32,2V15.73H24.41V77.16H40.84V15.73H65.1V77.16H81.53V15.73h24.2V2Z"/><path id="Path_632" data-name="Path 632" class="cls-1" d="M.34,2.07V15.76H24.43V77.19H40.86V15.76H65.12V77.19H81.54V15.76h24.2V2.07Z"/><path id="Path_633" data-name="Path 633" class="cls-1" d="M.36,2.1V15.79H24.45V77.22H40.88V15.79H65.14V77.22H81.56V15.79h24.2V2.1Z"/><path id="Path_634" data-name="Path 634" class="cls-1" d="M.38,2.13V15.82H24.47V77.25H40.9V15.82H65.15V77.25H81.58V15.82h24.2V2.13Z"/><path id="Path_635" data-name="Path 635" class="cls-1" d="M.4,2.16V15.85H24.49V77.28H40.92V15.85H65.18V77.28H81.6V15.85h24.2V2.16Z"/><path id="Path_636" data-name="Path 636" class="cls-1" d="M.42,2.2V15.88H24.51V77.31H40.94V15.88H65.2V77.31H81.62V15.88h24.2V2.2Z"/><path id="Path_637" data-name="Path 637" class="cls-1" d="M.44,2.23V15.91H24.53V77.34H41V15.91H65.21V77.34H81.64V15.91h24.2V2.23Z"/><path id="Path_638" data-name="Path 638" class="cls-1" d="M.46,2.26V15.94H24.55V77.38H41V15.94H65.23V77.38H81.66V15.94h24.2V2.26Z"/><path id="Path_639" data-name="Path 639" class="cls-1" d="M.47,2.29V16h24.1V77.41H41V16H65.25V77.41H81.68V16h24.2V2.29Z"/><path id="Path_640" data-name="Path 640" class="cls-1" d="M.49,2.32V16h24.1V77.44H41V16H65.27V77.44H81.69V16h24.2V2.32Z"/><path id="Path_641" data-name="Path 641" class="cls-1" d="M.51,2.35V16H24.6V77.47H41V16H65.29V77.47H81.72V16h24.2V2.35Z"/><path id="Path_642" data-name="Path 642" class="cls-1" d="M.53,2.38V16.07H24.62V77.5H41.05V16.07H65.31V77.5H81.73V16.07h24.2V2.38Z"/><path id="Path_643" data-name="Path 643" class="cls-1" d="M.55,2.41V16.1H24.64V77.53H41.07V16.1H65.33V77.53H81.75V16.1H106V2.41Z"/><path id="Path_644" data-name="Path 644" class="cls-1" d="M.57,2.44V16.13H24.66V77.56H41.09V16.13H65.35V77.56H81.77V16.13H106V2.44Z"/><path id="Path_645" data-name="Path 645" class="cls-1" d="M.59,2.47V16.16H24.68V77.59H41.11V16.16H65.36V77.59H81.79V16.16H106V2.47Z"/><path id="Path_646" data-name="Path 646" class="cls-1" d="M.61,2.5V16.19H24.7V77.62H41.13V16.19H65.38V77.62H81.81V16.19H106V2.5Z"/><path id="Path_647" data-name="Path 647" class="cls-1" d="M.63,2.53V16.22H24.72V77.65H41.14V16.22H65.4V77.65H81.83V16.22H106V2.53Z"/><path id="Path_648" data-name="Path 648" class="cls-1" d="M.65,2.56V16.25H24.74V77.68H41.16V16.25H65.42V77.68H81.85V16.25h24.2V2.56Z"/><path id="Path_649" data-name="Path 649" class="cls-1" d="M.66,2.59V16.28H24.75V77.71H41.18V16.28H65.44V77.71H81.87V16.28h24.2V2.59Z"/><path id="Path_650" data-name="Path 650" class="cls-1" d="M.68,2.62V16.31H24.77V77.74H41.2V16.31H65.46V77.74H81.89V16.31h24.2V2.62Z"/><path id="Path_651" data-name="Path 651" class="cls-1" d="M.7,2.65V16.34H24.79V77.77H41.22V16.34H65.48V77.77H81.91V16.34h24.2V2.65Z"/><path id="Path_652" data-name="Path 652" class="cls-1" d="M.72,2.68V16.37H24.81V77.8H41.24V16.37H65.5V77.8H81.92V16.37h24.2V2.68Z"/><path id="Path_653" data-name="Path 653" class="cls-1" d="M.74,2.72V16.4H24.83V77.83H41.26V16.4H65.52V77.83H81.94V16.4h24.2V2.72Z"/><path id="Path_654" data-name="Path 654" class="cls-1" d="M.76,2.75V16.43H24.85V77.87H41.28V16.43H65.54V77.86H82V16.43h24.2V2.75Z"/><path id="Path_655" data-name="Path 655" class="cls-1" d="M.78,2.78V16.47H24.87V77.9H41.29V16.47H65.55V77.9H82V16.47h24.2V2.78Z"/><path id="Path_656" data-name="Path 656" class="cls-1" d="M.8,2.81V16.49H24.89V77.92H41.32V16.49H65.57V77.92H82V16.49h24.2V2.81Z"/><path id="Path_657" data-name="Path 657" class="cls-1" d="M.82,2.84V16.53H24.9V78H41.33V16.53H65.59V78H82V16.53h24.2V2.84Z"/><path id="Path_658" data-name="Path 658" class="cls-1" d="M.84,2.87V16.56H24.93V78H41.35V16.56H65.61V78H82V16.56h24.2V2.87Z"/><path id="Path_659" data-name="Path 659" class="cls-1" d="M.85,2.9V16.59H25V78H41.37V16.59H65.63V78H82.06V16.59h24.2V2.9Z"/><path id="Path_660" data-name="Path 660" class="cls-1" d="M.87,2.93V16.62H25V78.05H41.39V16.62H65.65V78.05H82.08V16.62h24.2V2.93Z"/><path id="Path_661" data-name="Path 661" class="cls-1" d="M.89,3V16.64H25V78.08H41.41V16.64H65.67V78.08H82.1V16.64h24.2V3Z"/><path id="Path_662" data-name="Path 662" class="cls-1" d="M.91,3V16.68H25V78.11H41.43V16.68H65.69V78.11H82.12V16.68h24.2V3Z"/><path id="Path_663" data-name="Path 663" class="cls-1" d="M.93,3V16.71H25V78.14H41.44V16.71H65.7V78.14H82.13V16.71h24.2V3Z"/><path id="Path_664" data-name="Path 664" class="cls-1" d="M1,3.05V16.74H25V78.18H41.47V16.74H65.72V78.18H82.15V16.74h24.2V3.05Z"/><path id="Path_665" data-name="Path 665" class="cls-1" d="M1,3.09V16.77H25.06V78.21H41.49V16.77H65.74V78.2H82.17V16.77h24.2V3.09Z"/><path id="Path_666" data-name="Path 666" class="cls-1" d="M1,3.11V16.8H25.08V78.23H41.51V16.8H65.76V78.23H82.19V16.8h24.2V3.11Z"/><path id="Path_667" data-name="Path 667" class="cls-1" d="M1,3.14V16.83H25.1V78.26H41.53V16.83H65.78V78.26H82.21V16.83h24.2V3.14Z"/><path id="Path_668" data-name="Path 668" class="cls-1" d="M1,3.17V16.86H25.12V78.29H41.54V16.86H65.8V78.29H82.23V16.86h24.2V3.17Z"/><path id="Path_669" data-name="Path 669" class="cls-1" d="M1,3.21V16.89h24.1V78.33H41.56V16.89H65.82V78.33H82.25V16.89h24.2V3.21Z"/><path id="Path_670" data-name="Path 670" class="cls-1" d="M1.06,3.24V16.93H25.15V78.36H41.58V16.92H65.84V78.36H82.27V16.92h24.2V3.24Z"/><path id="Path_671" data-name="Path 671" class="cls-1" d="M1.08,3.27V17H25.17V78.39H41.6V17H65.86V78.39H82.29V17h24.2V3.27Z"/><path id="Path_672" data-name="Path 672" class="cls-1" d="M1.1,3.3V17H25.19V78.42H41.62V17H65.88V78.42H82.3V17h24.2V3.3Z"/><path id="Path_673" data-name="Path 673" class="cls-1" d="M1.12,3.33V17H25.21V78.45H41.64V17H65.9V78.45H82.33V17h24.2V3.33Z"/><path id="Path_674" data-name="Path 674" class="cls-1" d="M1.14,3.36V17.05H25.23V78.48H41.66V17.05H65.92V78.48H82.34V17.05h24.2V3.36Z"/><path id="Path_675" data-name="Path 675" class="cls-1" d="M1.16,3.39V17.08H25.25V78.51H41.68V17.08H65.93V78.51H82.36V17.08h24.2V3.39Z"/><path id="Path_676" data-name="Path 676" class="cls-1" d="M1.18,3.42V17.11H25.27V78.54H41.7V17.11H66V78.54H82.38V17.11h24.2V3.42Z"/><path id="Path_677" data-name="Path 677" class="cls-1" d="M1.2,3.45V17.14H25.29V78.57H41.71V17.14H66V78.57H82.4V17.14h24.2V3.45Z"/><path id="Path_678" data-name="Path 678" class="cls-1" d="M1.22,3.48V17.17H25.31V78.6H41.74V17.17H66V78.6H82.42V17.17h24.2V3.48Z"/><path id="Path_679" data-name="Path 679" class="cls-1" d="M1.24,3.51V17.2H25.33V78.63H41.75V17.2H66V78.63H82.44V17.2h24.2V3.51Z"/><path id="Path_680" data-name="Path 680" class="cls-1" d="M1.25,3.54V17.23H25.34V78.66H41.77V17.23H66V78.66H82.45V17.23h24.2V3.54Z"/><path id="Path_681" data-name="Path 681" class="cls-1" d="M1.27,3.57V17.26H25.36V78.69H41.79V17.26H66.05V78.69H82.48V17.26h24.2V3.57Z"/><path id="Path_682" data-name="Path 682" class="cls-1" d="M1.29,3.6V17.29H25.38V78.72H41.81V17.29H66.07V78.72H82.49V17.29H106.7V3.6Z"/><path id="Path_683" data-name="Path 683" class="cls-1" d="M1.31,3.63V17.32H25.4V78.75H41.83V17.32H66.09V78.75H82.51V17.32h24.2V3.63Z"/><path id="Path_684" data-name="Path 684" class="cls-1" d="M1.33,3.67V17.35H25.42V78.79H41.85V17.35H66.11V78.79H82.53V17.35h24.2V3.67Z"/><path id="Path_685" data-name="Path 685" class="cls-1" d="M1.35,3.7V17.38H25.44V78.82H41.87V17.38H66.13V78.82H82.55V17.38h24.2V3.7Z"/><path id="Path_686" data-name="Path 686" class="cls-1" d="M1.37,3.73V17.41H25.46V78.84H41.89V17.41H66.15V78.84H82.57V17.41h24.2V3.73Z"/><path id="Path_687" data-name="Path 687" class="cls-1" d="M1.39,3.76V17.44H25.48V78.88H41.9V17.44H66.16V78.88H82.59V17.44h24.2V3.76Z"/><path id="Path_688" data-name="Path 688" class="cls-1" d="M1.41,3.79V17.48H25.5V78.91H41.92V17.48H66.18V78.91H82.61V17.48h24.2V3.79Z"/><path id="Path_689" data-name="Path 689" class="cls-1" d="M1.43,3.82V17.51H25.51V78.94H41.94V17.51H66.2V78.94H82.63V17.51h24.2V3.82Z"/><path id="Path_690" data-name="Path 690" class="cls-1" d="M1.44,3.85V17.54h24.1V79H42V17.54H66.22V79H82.65V17.54h24.2V3.85Z"/><path id="Path_691" data-name="Path 691" class="cls-1" d="M1.46,3.88V17.57H25.55V79H42V17.57H66.24V79H82.67V17.57h24.2V3.88Z"/><path id="Path_692" data-name="Path 692" class="cls-1" d="M1.48,3.91V17.6H25.57V79H42V17.6H66.26V79H82.68V17.6h24.21V3.91Z"/><path id="Path_693" data-name="Path 693" class="cls-1" d="M1.5,3.94V17.63H25.59V79.06H42V17.63H66.28V79.06H82.7V17.63h24.2V3.94Z"/><path id="Path_694" data-name="Path 694" class="cls-1" d="M1.52,4V17.66H25.61V79.09H42V17.66H66.3V79.09H82.73V17.66h24.2V4Z"/><path id="Path_695" data-name="Path 695" class="cls-1" d="M1.54,4V17.69H25.63V79.12H42.05V17.69H66.31V79.12H82.74V17.69h24.2V4Z"/><path id="Path_696" data-name="Path 696" class="cls-1" d="M1.56,4V17.72H25.65V79.15H42.08V17.72H66.34V79.15H82.76V17.72H107V4Z"/><path id="Path_697" data-name="Path 697" class="cls-1" d="M1.58,4.06V17.75H25.66V79.18H42.09V17.75H66.35V79.18H82.78V17.75H107V4.06Z"/><path id="Path_698" data-name="Path 698" class="cls-1" d="M1.6,4.09V17.78H25.69V79.21H42.12V17.78H66.37V79.21H82.8V17.78H107V4.09Z"/><path id="Path_699" data-name="Path 699" class="cls-1" d="M1.61,4.12V17.81h24.1V79.24H42.13V17.81H66.39V79.24H82.82V17.81H107V4.12Z"/><path id="Path_700" data-name="Path 700" class="cls-1" d="M1.63,4.15V17.84H25.72V79.27H42.15V17.84H66.41V79.27H82.84V17.84H107V4.15Z"/><path id="Path_701" data-name="Path 701" class="cls-1" d="M1.65,4.19V17.87H25.74V79.3H42.17V17.87H66.43V79.3H82.86V17.87h24.2V4.19Z"/><path id="Path_702" data-name="Path 702" class="cls-1" d="M1.67,4.22V17.9H25.76V79.34H42.19V17.9H66.45V79.34H82.88V17.9h24.2V4.22Z"/><path id="Path_703" data-name="Path 703" class="cls-1" d="M1.69,4.25V17.93H25.78V79.37H42.2V17.93H66.46V79.37H82.89V17.93h24.2V4.25Z"/><path id="Path_704" data-name="Path 704" class="cls-1" d="M1.71,4.28V18H25.8V79.4H42.23V18H66.49V79.4H82.91V18h24.2V4.28Z"/><path id="Path_705" data-name="Path 705" class="cls-1" d="M1.73,4.31V18H25.82V79.43H42.24V18H66.5V79.43H82.93V18h24.2V4.31Z"/><path id="Path_706" data-name="Path 706" class="cls-1" d="M1.75,4.34V18H25.84V79.46H42.27V18H66.52V79.46H83V18h24.2V4.34Z"/><path id="Path_707" data-name="Path 707" class="cls-1" d="M1.77,4.37V18.06H25.86V79.49H42.29V18.06H66.54V79.49H83V18.06h24.2V4.37Z"/><path id="Path_708" data-name="Path 708" class="cls-1" d="M1.79,4.4V18.09H25.88V79.52H42.3V18.09H66.56V79.52H83V18.09h24.2V4.4Z"/><path id="Path_709" data-name="Path 709" class="cls-1" d="M1.8,4.43V18.12H25.9V79.55H42.32V18.12H66.58V79.55H83V18.12h24.2V4.43Z"/><path id="Path_710" data-name="Path 710" class="cls-1" d="M1.82,4.46V18.15h24.1V79.58H42.34V18.15H66.6V79.58H83V18.15h24.2V4.46Z"/><path id="Path_711" data-name="Path 711" class="cls-1" d="M1.84,4.49V18.18H25.93V79.61H42.36V18.18H66.61V79.61H83.05V18.18h24.2V4.49Z"/><path id="Path_712" data-name="Path 712" class="cls-1" d="M1.86,4.52V18.21H26V79.64H42.38V18.21H66.64V79.64H83.06V18.21h24.2V4.52Z"/><path id="Path_713" data-name="Path 713" class="cls-1" d="M1.88,4.55V18.24H26V79.67H42.4V18.24H66.65V79.67H83.08V18.24h24.2V4.55Z"/><path id="Path_714" data-name="Path 714" class="cls-1" d="M1.9,4.58V18.27H26V79.7H42.42V18.27H66.68V79.7H83.1V18.27h24.2V4.58Z"/><path id="Path_715" data-name="Path 715" class="cls-1" d="M1.92,4.61V18.3H26V79.73H42.44V18.3H66.7V79.73H83.12V18.3h24.2V4.61Z"/><path id="Path_716" data-name="Path 716" class="cls-1" d="M1.94,4.65V18.33H26V79.76H42.46V18.33H66.71V79.76H83.14V18.33h24.2V4.65Z"/><path id="Path_717" data-name="Path 717" class="cls-1" d="M2,4.68V18.36H26.05V79.79H42.48V18.36H66.73V79.79H83.16V18.36h24.2V4.68Z"/><path id="Path_718" data-name="Path 718" class="cls-1" d="M2,4.71V18.39H26.07V79.83H42.49V18.39H66.75V79.83H83.18V18.39h24.2V4.71Z"/><path id="Path_719" data-name="Path 719" class="cls-1" d="M2,4.74V18.42h24.1V79.85H42.51V18.42H66.77V79.85H83.2V18.42h24.2V4.74Z"/><path id="Path_720" data-name="Path 720" class="cls-1" d="M2,4.76V18.45H26.1V79.88H42.53V18.46H66.79V79.89H83.21V18.46h24.21V4.76Z"/><path id="Path_721" data-name="Path 721" class="cls-1" d="M2,4.8V18.49H26.12V79.92H42.55V18.49H66.81V79.92H83.23V18.49h24.2V4.8Z"/><path id="Path_722" data-name="Path 722" class="cls-1" d="M2.05,4.83V18.52H26.14V80H42.57V18.52H66.83V80H83.26V18.52h24.2V4.83Z"/><path id="Path_723" data-name="Path 723" class="cls-1" d="M2.07,4.86V18.55H26.16V80H42.59V18.55H66.85V80H83.27V18.55h24.2V4.86Z"/><path id="Path_724" data-name="Path 724" class="cls-1" d="M2.09,4.89V18.58H26.18V80H42.61V18.58H66.87V80H83.29V18.58h24.2V4.89Z"/><path id="Path_725" data-name="Path 725" class="cls-1" d="M2.11,4.92V18.61H26.2V80H42.63V18.61H66.89V80H83.31V18.61h24.2V4.92Z"/><path id="Path_726" data-name="Path 726" class="cls-1" d="M2.13,5V18.64H26.22V80.07H42.65V18.64H66.9V80.07H83.33V18.64h24.2V5Z"/><path id="Path_727" data-name="Path 727" class="cls-1" d="M2.15,5V18.67H26.24V80.1H42.66V18.67H66.92V80.1H83.35V18.67h24.2V5Z"/><path id="Path_728" data-name="Path 728" class="cls-1" d="M2.17,5V18.7H26.26V80.13H42.68V18.7H66.94V80.13H83.37V18.7h24.2V5Z"/><path id="Path_729" data-name="Path 729" class="cls-1" d="M2.18,5V18.73H26.27V80.16H42.7V18.73H67V80.16H83.38V18.73h24.21V5Z"/><path id="Path_730" data-name="Path 730" class="cls-1" d="M2.2,5.07V18.76H26.3V80.19H42.72V18.76H67V80.19H83.41V18.76h24.2V5.07Z"/><path id="Path_731" data-name="Path 731" class="cls-1" d="M2.22,5.1V18.79h24.1V80.22H42.74V18.79H67V80.22H83.43V18.79h24.2V5.1Z"/><path id="Path_732" data-name="Path 732" class="cls-1" d="M2.24,5.14V18.82H26.33V80.25H42.76V18.82H67V80.25H83.45V18.82h24.2V5.14Z"/><path id="Path_733" data-name="Path 733" class="cls-1" d="M2.26,5.17V18.85H26.35V80.28H42.78V18.85H67V80.28H83.46V18.85h24.21V5.17Z"/><path id="Path_734" data-name="Path 734" class="cls-1" d="M2.28,5.2V18.88H26.37V80.32H42.8V18.88H67.06V80.32H83.48V18.88h24.2V5.2Z"/><path id="Path_735" data-name="Path 735" class="cls-1" d="M2.3,5.23V18.91H26.39V80.35H42.81V18.91H67.07V80.35H83.5V18.91h24.2V5.23Z"/><path id="Path_736" data-name="Path 736" class="cls-1" d="M2.32,5.26V19H26.41V80.38H42.84V19H67.1V80.38H83.52V19h24.2V5.26Z"/><path id="Path_737" data-name="Path 737" class="cls-1" d="M2.34,5.29V19H26.43V80.41H42.85V19H67.11V80.41H83.54V19h24.2V5.29Z"/><path id="Path_738" data-name="Path 738" class="cls-1" d="M2.36,5.32V19H26.45V80.44H42.87V19H67.13V80.44H83.56V19h24.2V5.32Z"/><path id="Path_739" data-name="Path 739" class="cls-1" d="M2.38,5.35V19H26.47V80.47H42.89V19H67.15V80.47H83.58V19h24.2V5.35Z"/><path id="Path_740" data-name="Path 740" class="cls-1" d="M2.39,5.38V19.07h24.1V80.5H42.91V19.07H67.17V80.5H83.6V19.07h24.2V5.38Z"/><path id="Path_741" data-name="Path 741" class="cls-1" d="M2.41,5.41V19.1h24.1V80.53H42.93V19.1H67.19V80.53H83.62V19.1h24.2V5.41Z"/><path id="Path_742" data-name="Path 742" class="cls-1" d="M2.43,5.44V19.13H26.52V80.56H43V19.13H67.21V80.56H83.63V19.13h24.21V5.44Z"/><path id="Path_743" data-name="Path 743" class="cls-1" d="M2.45,5.47V19.16H26.54V80.59H43V19.16H67.22V80.59H83.65V19.16h24.21V5.47Z"/><path id="Path_744" data-name="Path 744" class="cls-1" d="M2.47,5.5V19.19H26.56V80.62H43V19.19H67.25V80.62H83.67V19.19h24.2V5.5Z"/><path id="Path_745" data-name="Path 745" class="cls-1" d="M2.49,5.53v13.7H26.58V80.66H43V19.23H67.26V80.66H83.69V19.23h24.2V5.53Z"/><path id="Path_746" data-name="Path 746" class="cls-1" d="M2.51,5.56V19.25H26.6V80.68H43V19.25H67.28V80.68H83.71V19.25h24.2V5.56Z"/><path id="Path_747" data-name="Path 747" class="cls-1" d="M2.53,5.59V19.28H26.62V80.71H43.05V19.28H67.3V80.71H83.73V19.28h24.2V5.59Z"/><path id="Path_748" data-name="Path 748" class="cls-1" d="M2.55,5.62V19.31H26.64V80.74H43.06V19.31H67.32V80.74H83.75V19.31H108V5.62Z"/><path id="Path_749" data-name="Path 749" class="cls-1" d="M2.57,5.66V19.34H26.66V80.78H43.08V19.34H67.34V80.78H83.77V19.34H108V5.66Z"/><path id="Path_750" data-name="Path 750" class="cls-1" d="M2.58,5.69V19.38h24.1V80.81H43.1V19.38H67.36V80.81H83.79V19.38H108V5.69Z"/><path id="Path_751" data-name="Path 751" class="cls-1" d="M2.6,5.72V19.41H26.7V80.84H43.12V19.41H67.38V80.84H83.81V19.41H108V5.72Z"/><path id="Path_752" data-name="Path 752" class="cls-1" d="M2.62,5.75V19.44H26.71V80.87H43.14V19.44H67.4V80.87H83.82V19.44H108V5.75Z"/><path id="Path_753" data-name="Path 753" class="cls-1" d="M2.64,5.78V19.47H26.73V80.9H43.16V19.47H67.41V80.9H83.84V19.47H108V5.78Z"/><path id="Path_754" data-name="Path 754" class="cls-1" d="M2.66,5.81V19.5H26.75V80.93H43.18V19.5H67.44V80.93H83.86V19.5h24.2V5.81Z"/><path id="Path_755" data-name="Path 755" class="cls-1" d="M2.68,5.84V19.53H26.77V81H43.2V19.53H67.46V81H83.88V19.53h24.2V5.84Z"/><path id="Path_756" data-name="Path 756" class="cls-1" d="M2.7,5.87V19.56H26.79V81H43.22V19.56H67.47V81H83.9V19.56h24.2V5.87Z"/><path id="Path_757" data-name="Path 757" class="cls-1" d="M2.72,5.9V19.59H26.81V81H43.24V19.59H67.5V81H83.92V19.59h24.2V5.9Z"/><path id="Path_758" data-name="Path 758" class="cls-1" d="M2.74,5.93V19.62H26.83V81.05H43.25V19.62H67.51V81.05H83.94V19.62h24.2V5.93Z"/><path id="Path_759" data-name="Path 759" class="cls-1" d="M2.76,6V19.65H26.85V81.08H43.27V19.65H67.53V81.08H84V19.65h24.2V6Z"/><path id="Path_760" data-name="Path 760" class="cls-1" d="M2.77,6V19.68H26.86V81.11H43.29V19.68H67.55V81.11H84V19.68h24.21V6Z"/><path id="Path_761" data-name="Path 761" class="cls-1" d="M2.79,6V19.71H26.88V81.14H43.31V19.71H67.57V81.14H84V19.71h24.2V6Z"/><path id="Path_762" data-name="Path 762" class="cls-1" d="M2.81,6.05V19.74H26.9V81.17H43.33V19.74H67.59V81.17H84V19.74h24.21V6.05Z"/><path id="Path_763" data-name="Path 763" class="cls-1" d="M2.83,6.08V19.77H26.92V81.2H43.35V19.77H67.61V81.2H84V19.77h24.2V6.08Z"/><path id="Path_764" data-name="Path 764" class="cls-1" d="M2.85,6.11V19.8H26.94V81.23H43.37V19.8H67.63V81.23H84.05V19.8h24.2V6.11Z"/><path id="Path_765" data-name="Path 765" class="cls-1" d="M2.87,6.15V19.84H27V81.27H43.39V19.84H67.65V81.27H84.07V19.84h24.2V6.15Z"/><path id="Path_766" data-name="Path 766" class="cls-1" d="M2.89,6.18V19.86H27V81.3H43.41V19.86H67.66V81.3H84.09V19.86h24.2V6.18Z"/><path id="Path_767" data-name="Path 767" class="cls-1" d="M2.91,6.21V19.9H27V81.33H43.42V19.9H67.68V81.33H84.11V19.9h24.2V6.21Z"/><path id="Path_768" data-name="Path 768" class="cls-1" d="M2.93,6.24V19.93H27V81.36H43.44V19.93H67.7V81.36H84.13V19.93h24.2V6.24Z"/><path id="Path_769" data-name="Path 769" class="cls-1" d="M3,6.27V20H27V81.39H43.46V20H67.72V81.39H84.15V20h24.2V6.27Z"/><path id="Path_770" data-name="Path 770" class="cls-1" d="M3,6.3V20h24.1V81.42H43.48V20H67.74V81.42H84.17V20h24.2V6.3Z"/><path id="Path_771" data-name="Path 771" class="cls-1" d="M3,6.33V20h24.1V81.45H43.5V20H67.76V81.45H84.19V20h24.2V6.33Z"/><path id="Path_772" data-name="Path 772" class="cls-1" d="M3,6.36V20.05H27.09V81.48H43.52V20.05H67.78V81.48H84.21V20.05h24.2V6.36Z"/><path id="Path_773" data-name="Path 773" class="cls-1" d="M3,6.39V20.08H27.11V81.51H43.54V20.08H67.8V81.51H84.23V20.08h24.2V6.39Z"/><path id="Path_774" data-name="Path 774" class="cls-1" d="M3,6.42V20.11H27.13V81.54H43.56V20.11H67.82V81.54H84.24V20.11h24.2V6.42Z"/><path id="Path_775" data-name="Path 775" class="cls-1" d="M3.06,6.45V20.14H27.15V81.57H43.57V20.14H67.83V81.57H84.26V20.14h24.2V6.45Z"/><path id="Path_776" data-name="Path 776" class="cls-1" d="M3.08,6.48V20.17H27.17V81.6H43.6V20.17H67.85V81.6H84.28V20.17h24.2V6.48Z"/><path id="Path_777" data-name="Path 777" class="cls-1" d="M3.1,6.51V20.2H27.19V81.63H43.61V20.2H67.87V81.63H84.3V20.2h24.2V6.51Z"/><path id="Path_778" data-name="Path 778" class="cls-1" d="M3.12,6.54V20.23H27.21V81.66H43.63V20.23H67.89V81.66H84.32V20.23h24.2V6.54Z"/><path id="Path_779" data-name="Path 779" class="cls-1" d="M3.14,6.57V20.26H27.23V81.69H43.65V20.26H67.91V81.69H84.34V20.26h24.2V6.57Z"/><path id="Path_780" data-name="Path 780" class="cls-1" d="M3.15,6.6V20.29H27.24V81.72H43.67V20.29H67.93V81.72H84.36V20.29h24.2V6.6Z"/><path id="Path_781" data-name="Path 781" class="cls-1" d="M3.17,6.64V20.32h24.1V81.75H43.69V20.32H68V81.75H84.38V20.32h24.2V6.64Z"/><path id="Path_782" data-name="Path 782" class="cls-1" d="M3.19,6.67V20.35H27.28V81.79H43.71V20.35H68V81.79H84.4V20.35h24.2V6.67Z"/><path id="Path_783" data-name="Path 783" class="cls-1" d="M3.21,6.7V20.38H27.3V81.82H43.73V20.38H68V81.82H84.41V20.38h24.2V6.7Z"/><path id="Path_784" data-name="Path 784" class="cls-1" d="M3.23,6.73V20.42H27.32V81.85H43.75V20.42H68V81.85H84.43V20.42h24.2V6.73Z"/><path id="Path_785" data-name="Path 785" class="cls-1" d="M3.25,6.76V20.44H27.34V81.88H43.77V20.44H68V81.88H84.45V20.44h24.2V6.76Z"/><path id="Path_786" data-name="Path 786" class="cls-1" d="M3.27,6.79V20.48H27.36V81.91H43.79V20.48H68V81.91H84.47V20.48h24.2V6.79Z"/><path id="Path_787" data-name="Path 787" class="cls-1" d="M3.29,6.82V20.51H27.38V81.94H43.81V20.51H68.07V81.94H84.49V20.51h24.2V6.82Z"/><path id="Path_788" data-name="Path 788" class="cls-1" d="M3.31,6.85V20.54H27.4V82H43.82V20.54H68.08V82H84.51V20.54h24.2V6.85Z"/><path id="Path_789" data-name="Path 789" class="cls-1" d="M3.33,6.88V20.57H27.42V82H43.84V20.57H68.1V82H84.53V20.57h24.2V6.88Z"/><path id="Path_790" data-name="Path 790" class="cls-1" d="M3.34,6.91V20.6h24.1V82H43.86V20.6H68.12V82H84.55V20.6h24.2V6.91Z"/><path id="Path_791" data-name="Path 791" class="cls-1" d="M3.36,6.94V20.63h24.1V82.06H43.88V20.63H68.13V82.06H84.56V20.63h24.2V6.94Z"/><path id="Path_792" data-name="Path 792" class="cls-1" d="M3.38,7V20.66H27.47V82.09H43.9V20.66H68.16V82.09H84.58V20.66h24.2V7Z"/><path id="Path_793" data-name="Path 793" class="cls-1" d="M3.4,7V20.69H27.49V82.12H43.92V20.69H68.17V82.12H84.6V20.69h24.2V7Z"/><path id="Path_794" data-name="Path 794" class="cls-1" d="M3.42,7V20.72H27.51V82.15H43.94V20.72H68.2V82.15H84.62V20.72h24.2V7Z"/><path id="Path_795" data-name="Path 795" class="cls-1" d="M3.44,7.06V20.75H27.53V82.18H44V20.75H68.22V82.18H84.64V20.75h24.2V7.06Z"/><path id="Path_796" data-name="Path 796" class="cls-1" d="M3.46,7.1V20.78H27.55V82.21H44V20.78H68.24V82.21H84.66V20.78h24.2V7.1Z"/><path id="Path_797" data-name="Path 797" class="cls-1" d="M3.48,7.13V20.81H27.57V82.24H44V20.81H68.26V82.24H84.68V20.81h24.2V7.13Z"/><path id="Path_798" data-name="Path 798" class="cls-1" d="M3.5,7.16V20.84H27.59V82.28H44V20.84H68.27V82.28H84.7V20.84h24.2V7.16Z"/><path id="Path_799" data-name="Path 799" class="cls-1" d="M3.52,7.19V20.88H27.61V82.31H44V20.87H68.29V82.3H84.71V20.87h24.2V7.19Z"/><path id="Path_800" data-name="Path 800" class="cls-1" d="M3.54,7.22V20.9H27.63V82.33H44.05V20.9H68.31V82.33H84.74V20.9h24.2V7.22Z"/><path id="Path_801" data-name="Path 801" class="cls-1" d="M3.55,7.25V20.94H27.64V82.37H44.07V20.94H68.33V82.37H84.76V20.94H109V7.25Z"/><path id="Path_802" data-name="Path 802" class="cls-1" d="M3.57,7.28V21H27.66V82.4H44.09V21H68.35V82.4H84.78V21H109V7.28Z"/><path id="Path_803" data-name="Path 803" class="cls-1" d="M3.59,7.31V21H27.68V82.43H44.11V21H68.37V82.43H84.79V21H109V7.31Z"/><path id="Path_804" data-name="Path 804" class="cls-1" d="M3.61,7.34V21H27.7V82.46H44.13V21H68.39V82.46H84.82V21H109V7.34Z"/><path id="Path_805" data-name="Path 805" class="cls-1" d="M3.63,7.37V21.05H27.72V82.49H44.15V21.05H68.41V82.49H84.83V21.05H109V7.37Z"/><path id="Path_806" data-name="Path 806" class="cls-1" d="M3.65,7.4V21.09H27.74V82.52H44.17V21.09H68.43V82.52H84.85V21.09h24.2V7.4Z"/><path id="Path_807" data-name="Path 807" class="cls-1" d="M3.67,7.43V21.12H27.76V82.55H44.18V21.12H68.44V82.55H84.87V21.12h24.2V7.43Z"/><path id="Path_808" data-name="Path 808" class="cls-1" d="M3.69,7.46V21.15H27.78V82.59H44.21V21.15H68.46V82.59H84.89V21.15h24.2V7.46Z"/><path id="Path_809" data-name="Path 809" class="cls-1" d="M3.71,7.5V21.18H27.79V82.62H44.22V21.18H68.48V82.61H84.91V21.18h24.2V7.5Z"/><path id="Path_810" data-name="Path 810" class="cls-1" d="M3.73,7.52V21.21H27.82V82.64H44.24V21.21H68.5V82.64H84.93V21.21h24.2V7.52Z"/><path id="Path_811" data-name="Path 811" class="cls-1" d="M3.74,7.55V21.24H27.83V82.67H44.26V21.24H68.52V82.67H85V21.24h24.2V7.55Z"/><path id="Path_812" data-name="Path 812" class="cls-1" d="M3.76,7.59V21.27H27.85V82.7H44.28V21.27H68.54V82.7H85V21.27h24.2V7.59Z"/><path id="Path_813" data-name="Path 813" class="cls-1" d="M3.78,7.62V21.3H27.87V82.74H44.3V21.3H68.56V82.74H85V21.3h24.2V7.62Z"/><path id="Path_814" data-name="Path 814" class="cls-1" d="M3.8,7.65V21.34H27.89V82.77H44.32V21.33H68.58V82.77H85V21.33h24.2V7.65Z"/><path id="Path_815" data-name="Path 815" class="cls-1" d="M3.82,7.68V21.36H27.91V82.8H44.33V21.36H68.59V82.8H85V21.36h24.2V7.68Z"/><path id="Path_816" data-name="Path 816" class="cls-1" d="M3.84,7.71V21.4H27.93V82.83H44.36V21.4H68.62V82.83H85V21.4h24.2V7.71Z"/><path id="Path_817" data-name="Path 817" class="cls-1" d="M3.86,7.74V21.43H28V82.86H44.37V21.43H68.63V82.86H85.06V21.43h24.2V7.74Z"/><path id="Path_818" data-name="Path 818" class="cls-1" d="M3.88,7.77V21.46H28V82.89H44.4V21.46H68.65V82.89H85.08V21.46h24.2V7.77Z"/><path id="Path_819" data-name="Path 819" class="cls-1" d="M3.9,7.8V21.49H28V82.92H44.41V21.49H68.67V82.92H85.1V21.49h24.2V7.8Z"/><path id="Path_820" data-name="Path 820" class="cls-1" d="M3.92,7.83V21.52H28V83H44.43V21.52H68.69V83H85.12V21.52h24.2V7.83Z"/><path id="Path_821" data-name="Path 821" class="cls-1" d="M3.93,7.86V21.55H28V83H44.45V21.55H68.71V83H85.14V21.55h24.2V7.86Z"/><path id="Path_822" data-name="Path 822" class="cls-1" d="M4,7.89V21.58H28V83H44.47V21.58H68.73V83H85.16V21.58h24.2V7.89Z"/><path id="Path_823" data-name="Path 823" class="cls-1" d="M4,7.92V21.61H28.06V83H44.49V21.61H68.74V83H85.17V21.61h24.2V7.92Z"/><path id="Path_824" data-name="Path 824" class="cls-1" d="M4,8V21.64H28.08V83.07H44.51V21.64H68.77V83.07H85.19V21.64h24.2V8Z"/><path id="Path_825" data-name="Path 825" class="cls-1" d="M4,8V21.67H28.1V83.1H44.53V21.67H68.78V83.1H85.21V21.67h24.2V8Z"/><path id="Path_826" data-name="Path 826" class="cls-1" d="M4,8V21.7H28.12V83.13H44.55V21.7H68.81V83.13H85.23V21.7h24.2V8Z"/><path id="Path_827" data-name="Path 827" class="cls-1" d="M4.05,8V21.73H28.14V83.16H44.57V21.73H68.82V83.16H85.25V21.73h24.2V8Z"/><path id="Path_828" data-name="Path 828" class="cls-1" d="M4.07,8.07V21.76H28.16V83.2H44.59V21.76H68.84V83.2H85.27V21.76h24.2V8.07Z"/><path id="Path_829" data-name="Path 829" class="cls-1" d="M4.09,8.11V21.79H28.18V83.22H44.6V21.79H68.86V83.22H85.29V21.79h24.2V8.11Z"/><path id="Path_830" data-name="Path 830" class="cls-1" d="M4.11,8.14V21.82H28.2V83.26H44.62V21.82H68.88V83.26H85.31V21.82h24.2V8.14Z"/><path id="Path_831" data-name="Path 831" class="cls-1" d="M4.12,8.17V21.85H28.21V83.29H44.64V21.86H68.9V83.29H85.32V21.86h24.2V8.17Z"/><path id="Path_832" data-name="Path 832" class="cls-1" d="M4.14,8.2V21.89H28.23V83.32H44.66V21.89H68.92V83.32H85.34V21.89h24.2V8.2Z"/><path id="Path_833" data-name="Path 833" class="cls-1" d="M4.16,8.23V21.92H28.25V83.35H44.68V21.92H68.93V83.35H85.36V21.92h24.2V8.23Z"/><path id="Path_834" data-name="Path 834" class="cls-1" d="M4.18,8.26V22H28.27V83.38H44.7V22H69V83.38H85.38V22h24.2V8.26Z"/><path id="Path_835" data-name="Path 835" class="cls-1" d="M4.2,8.29V22H28.29V83.41H44.72V22H69V83.41H85.4V22h24.2V8.29Z"/><path id="Path_836" data-name="Path 836" class="cls-1" d="M4.22,8.32V22H28.31V83.44H44.74V22H69V83.44H85.42V22h24.2V8.32Z"/><path id="Path_837" data-name="Path 837" class="cls-1" d="M4.24,8.35V22H28.33V83.47H44.76V22H69V83.47H85.44V22h24.2V8.35Z"/><path id="Path_838" data-name="Path 838" class="cls-1" d="M4.26,8.38V22.07H28.35V83.5H44.77V22.07H69V83.5H85.46V22.07h24.2V8.38Z"/><path id="Path_839" data-name="Path 839" class="cls-1" d="M4.28,8.41V22.1H28.37V83.53H44.79V22.1H69.05V83.53H85.48V22.1h24.2V8.41Z"/><path id="Path_840" data-name="Path 840" class="cls-1" d="M4.3,8.44V22.13H28.39V83.56H44.81V22.13H69.07V83.56H85.5V22.13h24.2V8.44Z"/><path id="Path_841" data-name="Path 841" class="cls-1" d="M4.31,8.47V22.16H28.4V83.59H44.83V22.16H69.09V83.59H85.51V22.16h24.2V8.47Z"/><path id="Path_842" data-name="Path 842" class="cls-1" d="M4.33,8.5V22.19H28.42V83.62H44.85V22.19H69.11V83.62H85.54V22.19h24.2V8.5Z"/><path id="Path_843" data-name="Path 843" class="cls-1" d="M4.35,8.53V22.22H28.44V83.65H44.87V22.22H69.13V83.65H85.55V22.22h24.2V8.53Z"/><path id="Path_844" data-name="Path 844" class="cls-1" d="M4.37,8.56V22.25H28.46V83.68H44.89V22.25H69.15V83.68H85.57V22.25h24.21V8.56Z"/><path id="Path_845" data-name="Path 845" class="cls-1" d="M4.39,8.6V22.28H28.48V83.71H44.91V22.28H69.17V83.71H85.59V22.28h24.2V8.6Z"/><path id="Path_846" data-name="Path 846" class="cls-1" d="M4.41,8.63V22.31H28.5V83.75H44.93V22.31H69.18V83.75H85.61V22.31h24.2V8.63Z"/><path id="Path_847" data-name="Path 847" class="cls-1" d="M4.43,8.66V22.35H28.52V83.78H44.94V22.35H69.2V83.78H85.63V22.35h24.2V8.66Z"/><path id="Path_848" data-name="Path 848" class="cls-1" d="M4.45,8.69V22.38H28.54V83.81H45V22.38H69.23V83.81H85.65V22.38h24.2V8.69Z"/><path id="Path_849" data-name="Path 849" class="cls-1" d="M4.47,8.72V22.41H28.55V83.84H45V22.41H69.24V83.84H85.67V22.41h24.2V8.72Z"/><path id="Path_850" data-name="Path 850" class="cls-1" d="M4.49,8.75V22.44H28.58V83.87H45V22.44H69.26V83.87H85.69V22.44h24.2V8.75Z"/><path id="Path_851" data-name="Path 851" class="cls-1" d="M4.5,8.78V22.47H28.59V83.9H45V22.47H69.28V83.9H85.71V22.47h24.2V8.78Z"/><path id="Path_852" data-name="Path 852" class="cls-1" d="M4.52,8.81V22.5H28.61V83.93H45V22.5H69.3V83.93H85.73V22.5h24.2V8.81Z"/><path id="Path_853" data-name="Path 853" class="cls-1" d="M4.54,8.84V22.53H28.63V84H45.06V22.53H69.32V84H85.74V22.53h24.2V8.84Z"/><path id="Path_854" data-name="Path 854" class="cls-1" d="M4.56,8.87V22.56H28.65V84H45.08V22.56H69.34V84H85.76V22.56H110V8.87Z"/><path id="Path_855" data-name="Path 855" class="cls-1" d="M4.58,8.9V22.59H28.67V84H45.09V22.59H69.35V84H85.78V22.59H110V8.9Z"/><path id="Path_856" data-name="Path 856" class="cls-1" d="M4.6,8.93V22.62H28.69V84.05H45.12V22.62H69.38V84.05H85.8V22.62H110V8.93Z"/><path id="Path_857" data-name="Path 857" class="cls-1" d="M4.62,9V22.65H28.71V84.08H45.13V22.65H69.39V84.08H85.82V22.65H110V9Z"/><path id="Path_858" data-name="Path 858" class="cls-1" d="M4.64,9V22.68H28.73V84.11H45.15V22.68H69.41V84.11H85.84V22.68H110V9Z"/><path id="Path_859" data-name="Path 859" class="cls-1" d="M4.66,9V22.71H28.75V84.14H45.17V22.71H69.43V84.14H85.86V22.71h24.2V9Z"/><path id="Path_860" data-name="Path 860" class="cls-1" d="M4.68,9.05V22.74H28.77V84.17H45.19V22.74H69.45V84.17H85.88V22.74h24.2V9.05Z"/><path id="Path_861" data-name="Path 861" class="cls-1" d="M4.69,9.09V22.77h24.1V84.21H45.21V22.77H69.47V84.21H85.9V22.77h24.2V9.09Z"/><path id="Path_862" data-name="Path 862" class="cls-1" d="M4.71,9.12V22.8H28.8V84.24H45.23V22.8H69.49V84.24H85.92V22.8h24.2V9.12Z"/><path id="Path_863" data-name="Path 863" class="cls-1" d="M4.73,9.15V22.83H28.82V84.26H45.25V22.83H69.51V84.26H85.93V22.83h24.2V9.15Z"/><path id="Path_864" data-name="Path 864" class="cls-1" d="M4.75,9.17V22.86H28.84V84.29H45.27V22.87H69.53V84.3H86V22.87h24.2V9.17Z"/><path id="Path_865" data-name="Path 865" class="cls-1" d="M4.77,9.21V22.9H28.86V84.33H45.29V22.9H69.54V84.33H86V22.9h24.2V9.21Z"/><path id="Path_866" data-name="Path 866" class="cls-1" d="M4.79,9.24V22.93H28.88V84.36H45.31V22.93H69.57V84.36H86V22.93h24.2V9.24Z"/><path id="Path_867" data-name="Path 867" class="cls-1" d="M4.81,9.27V23H28.9V84.39H45.33V23H69.58V84.39H86V23h24.2V9.27Z"/><path id="Path_868" data-name="Path 868" class="cls-1" d="M4.83,9.3V23H28.92V84.42H45.35V23H69.6V84.42H86V23h24.2V9.3Z"/><path id="Path_869" data-name="Path 869" class="cls-1" d="M4.85,9.33V23H28.94V84.44H45.36V23H69.62V84.45H86.05V23h24.2V9.33Z"/><path id="Path_870" data-name="Path 870" class="cls-1" d="M4.87,9.36V23.05H29V84.48H45.38V23.05H69.64V84.48H86.07V23.05h24.2V9.36Z"/><path id="Path_871" data-name="Path 871" class="cls-1" d="M4.88,9.39V23.08H29V84.51H45.4V23.08H69.66V84.51H86.08V23.08h24.2V9.39Z"/><path id="Path_872" data-name="Path 872" class="cls-1" d="M4.9,9.42V23.11H29V84.54H45.42V23.11H69.68V84.54H86.1V23.11h24.2V9.42Z"/><path id="Path_873" data-name="Path 873" class="cls-1" d="M4.92,9.45V23.14H29V84.57H45.44V23.14H69.7V84.57H86.12V23.14h24.2V9.45Z"/><path id="Path_874" data-name="Path 874" class="cls-1" d="M4.94,9.48V23.17H29V84.6H45.46V23.17H69.72V84.6H86.14V23.17h24.2V9.48Z"/><path id="Path_875" data-name="Path 875" class="cls-1" d="M5,9.51V23.2H29.05V84.63H45.48V23.2H69.74V84.63H86.16V23.2h24.2V9.51Z"/><path id="Path_876" data-name="Path 876" class="cls-1" d="M5,9.54V23.23H29.07V84.66H45.5V23.23H69.76V84.66H86.18V23.23h24.2V9.54Z"/><path id="Path_877" data-name="Path 877" class="cls-1" d="M5,9.58V23.26H29.09V84.69H45.52V23.26H69.77V84.69H86.2V23.26h24.2V9.58Z"/><path id="Path_878" data-name="Path 878" class="cls-1" d="M5,9.61V23.29H29.11V84.72H45.54V23.29H69.79V84.72H86.22V23.29h24.2V9.61Z"/><path id="Path_879" data-name="Path 879" class="cls-1" d="M5,9.64V23.32H29.13V84.76H45.55V23.32H69.81V84.76H86.24V23.32h24.19V9.64Z"/><path id="Path_880" data-name="Path 880" class="cls-1" d="M5.06,9.67V23.36H29.15V84.79H45.57V23.36H69.83V84.79H86.26V23.36h24.2V9.67Z"/><path id="Path_881" data-name="Path 881" class="cls-1" d="M5.07,9.7V23.39H29.16V84.82H45.59V23.39H69.85V84.82H86.28V23.39h24.2V9.7Z"/><path id="Path_882" data-name="Path 882" class="cls-1" d="M5.09,9.73V23.42H29.18V84.85H45.61V23.42H69.87V84.85H86.3V23.42h24.2V9.73Z"/><path id="Path_883" data-name="Path 883" class="cls-1" d="M5.11,9.76V23.45H29.2V84.88H45.63V23.45H69.89V84.88H86.32V23.45h24.2V9.76Z"/><path id="Path_884" data-name="Path 884" class="cls-1" d="M5.13,9.79V23.48H29.22V84.91H45.65V23.48H69.91V84.91H86.34V23.48h24.2V9.79Z"/><path id="Path_885" data-name="Path 885" class="cls-1" d="M5.15,9.82V23.51H29.24V84.94H45.67V23.51H69.93V84.94H86.35V23.51h24.2V9.82Z"/><path id="Path_886" data-name="Path 886" class="cls-1" d="M5.17,9.85V23.54H29.26V85H45.69V23.54H70V85H86.37V23.54h24.2V9.85Z"/><path id="Path_887" data-name="Path 887" class="cls-1" d="M5.19,9.88V23.57H29.28V85H45.7V23.57H70V85H86.39V23.57h24.2V9.88Z"/><path id="Path_888" data-name="Path 888" class="cls-1" d="M5.21,9.91V23.6H29.3V85H45.73V23.6H70V85H86.41V23.6h24.2V9.91Z"/><path id="Path_889" data-name="Path 889" class="cls-1" d="M5.23,9.94v13.7H29.31V85.07H45.74V23.64H70V85.07H86.43V23.64h24.2V9.94Z"/><path id="Path_890" data-name="Path 890" class="cls-1" d="M5.24,10V23.66h24.1V85.09H45.76V23.66H70V85.09H86.45V23.66h24.2V10Z"/><path id="Path_891" data-name="Path 891" class="cls-1" d="M5.26,10V23.69H29.35V85.12H45.78V23.69H70V85.12H86.47V23.69h24.2V10Z"/><path id="Path_892" data-name="Path 892" class="cls-1" d="M5.28,10V23.72H29.37V85.15H45.8V23.72H70.06V85.15H86.49V23.72h24.2V10Z"/><path id="Path_893" data-name="Path 893" class="cls-1" d="M5.3,10.07V23.75H29.39V85.18H45.82V23.75H70.08V85.18H86.5V23.75h24.21V10.07Z"/><path id="Path_894" data-name="Path 894" class="cls-1" d="M5.32,10.1V23.79H29.41V85.22H45.84V23.79H70.1V85.22H86.52V23.79h24.2V10.1Z"/><path id="Path_895" data-name="Path 895" class="cls-1" d="M5.34,10.13V23.81H29.43V85.24H45.85V23.81H70.11V85.24H86.54V23.81h24.2V10.13Z"/><path id="Path_896" data-name="Path 896" class="cls-1" d="M5.36,10.16V23.85H29.45V85.28H45.88V23.85H70.14V85.28H86.56V23.85h24.2V10.16Z"/><path id="Path_897" data-name="Path 897" class="cls-1" d="M5.38,10.19V23.88H29.47V85.31H45.89V23.88H70.15V85.31H86.58V23.88h24.2V10.19Z"/><path id="Path_898" data-name="Path 898" class="cls-1" d="M5.4,10.22V23.91H29.49V85.34H45.92V23.91H70.17V85.34H86.6V23.91h24.2V10.22Z"/><path id="Path_899" data-name="Path 899" class="cls-1" d="M5.42,10.25V23.94H29.51V85.37H45.93V23.94H70.19V85.37H86.62V23.94h24.2V10.25Z"/><path id="Path_900" data-name="Path 900" class="cls-1" d="M5.43,10.28V24H29.52V85.4H46V24H70.21V85.4H86.64V24h24.2V10.28Z"/><path id="Path_901" data-name="Path 901" class="cls-1" d="M5.45,10.31V24H29.54V85.43H46V24H70.23V85.43H86.66V24h24.2V10.31Z"/><path id="Path_902" data-name="Path 902" class="cls-1" d="M5.47,10.34V24H29.56V85.46H46V24H70.25V85.46H86.68V24h24.2V10.34Z"/><path id="Path_903" data-name="Path 903" class="cls-1" d="M5.49,10.37V24.06H29.58V85.49H46V24.06H70.26V85.49H86.69V24.06h24.2V10.37Z"/><path id="Path_904" data-name="Path 904" class="cls-1" d="M5.51,10.4V24.09H29.6V85.52H46V24.09H70.29V85.52H86.71V24.09h24.2V10.4Z"/><path id="Path_905" data-name="Path 905" class="cls-1" d="M5.53,10.43V24.12H29.62V85.55H46.05V24.12H70.31V85.55H86.73V24.12h24.2V10.43Z"/><path id="Path_906" data-name="Path 906" class="cls-1" d="M5.55,10.46V24.15H29.64V85.58H46.07V24.15H70.32V85.58H86.75V24.15H111V10.46Z"/><path id="Path_907" data-name="Path 907" class="cls-1" d="M5.57,10.49V24.18H29.66V85.61H46.09V24.18H70.34V85.61H86.77V24.18H111V10.49Z"/><path id="Path_908" data-name="Path 908" class="cls-1" d="M5.59,10.53V24.21H29.68V85.64H46.1V24.21H70.36V85.64H86.79V24.21H111V10.53Z"/><path id="Path_909" data-name="Path 909" class="cls-1" d="M5.61,10.56V24.25H29.7V85.68H46.12V24.25H70.38V85.68H86.81V24.25H111V10.56Z"/><path id="Path_910" data-name="Path 910" class="cls-1" d="M5.62,10.59V24.27H29.71V85.7H46.14V24.27H70.4V85.7H86.83V24.27H111V10.59Z"/><path id="Path_911" data-name="Path 911" class="cls-1" d="M5.64,10.62V24.3h24.1V85.74H46.16V24.3H70.42V85.74H86.84V24.3H111V10.62Z"/><path id="Path_912" data-name="Path 912" class="cls-1" d="M5.66,10.65V24.34h24.1V85.77H46.18V24.33H70.44V85.77H86.86V24.33h24.2V10.65Z"/><path id="Path_913" data-name="Path 913" class="cls-1" d="M5.68,10.68V24.37H29.77V85.8H46.2V24.37H70.46V85.8H86.88V24.37h24.2V10.68Z"/><path id="Path_914" data-name="Path 914" class="cls-1" d="M5.7,10.71V24.4H29.79V85.83H46.22V24.4H70.48V85.83H86.9V24.4h24.21V10.71Z"/><path id="Path_915" data-name="Path 915" class="cls-1" d="M5.72,10.74V24.43H29.81V85.86H46.24V24.43H70.5V85.86H86.92V24.43h24.2V10.74Z"/></g><path id="Path_916" data-name="Path 916" class="cls-2" d="M0,0V13.69H24.09V75.12H40.52V13.69H64.78V75.12H81.2V13.69h24.2V0Z"/><path id="Path_917" data-name="Path 917" class="cls-3" d="M40.52,76.64l5.72,9.22.17-61.43-5.72-9.22Z"/><path id="Path_918" data-name="Path 918" class="cls-3" d="M81.2,15.21l5.72,9.22V85.86L81.2,76.64Z"/><path id="Path_919" data-name="Path 919" class="cls-3" d="M105.4,15.21l5.72,9.22V10.74L105.4,1.52Z"/></g></g></svg>